<?xml version="1.0" encoding="UTF-8"?>
<svg xmlns="http://www.w3.org/2000/svg" xmlns:xlink="http://www.w3.org/1999/xlink" width="420" height="334" viewBox="0 0 420 334">
  <defs>
    <path id="a" d="M0 0h421v334H0z"/>
  </defs>
  <g fill="none" fill-rule="evenodd">
    <mask id="b" fill="#fff">
      <use xlink:href="#a"/>
    </mask>
    <path fill="#73BB32" d="M263.706814 327c19.131987-7.4877 31.017571-20.69618 46.433594-35 61.530502-57.028576 107.141498 29.756811 104.859375-51-.83715-29.566244 13.309867-141.6117353-2.59375-165-14.427474-21.2202593 14.868775-2.4362267-66.742188-39.6601563-81.610962-37.22392947-177.089318-58.9931567-254.5234374 0C65.4448104 55.9271323 47.3553304 15.8838276 17.9704858 76c-29.3848447 60.116172-19.02929151 101.023103 6.3345629 155.435024 27.2207237 58.402389 79.4713323 70.730482 140.5743543 87.67325 36.534014 10.135008 61.540853 22.476997 98.827411 7.891726z" mask="url(#b)" transform="matrix(-1 0 0 1 420.140408 0)"/>
  </g>
</svg>
