<?xml version="1.0" encoding="UTF-8"?>
<svg xmlns="http://www.w3.org/2000/svg" width="24" height="26" viewBox="0 0 24 26">
  <g fill="none" fill-rule="evenodd">
    <path fill="#DF3318" d="M14.8832648 8.78998402l-1.2993869.61357827-.323136.32313602c-2.5037339.98461449-2.7386728.45999359-5.49863458 1.61796109l-1.29254407.3238963-1.61796106.6455117h-.64779267l-.64551172.3238964H2.26347277l-.96940806.323136H.9709287l-.6447514.0729907-.0038016-.7200231-.18399745-.8971776.18399745-.3953665V10.3729703L0 10.0505946v-.64703231l.64627204-.32389634h1.29558535c1.07433222-.6713626 1.36629512.03725568 2.9097448-.97092869h1.94185739l.3223757-.3223757h.32389634l.64627204-.32389634.97092869-.32389634.32313602-.32313602h.64703233l.9701684-.32237569c.8203853-.90706181 2.1243342-1.0203495 3.2351618-1.29482504l.646272-.32313601.6477927-.32389634.323136-.32389634h.3223757l.9709287-.96940806h.3246567l.646272-.32313601.3223757-.32465666 1.6172007-1.2933044h.3246567V.99290198l.3223757-.32389634.6493133.32389634v.32389633l.4364237.2083277.4972493.49876994.7466343.68352772.2592691.55047171v.32313602l-.648553.32313602-.6455117.64703236-.969408.97092869-.6477927.3223757-.6477927.648553-.6470323.32237569-1.2925441.64703236-1.6187214.64627204-.3223757.32465666-.9709287.32237569.0045619.03421441z"/>
    <path fill="#FBD016" d="M10.711921.13982289l.4972493-.07147009s.4478285.18095617.745874.16194817c.2759961-.01672704.6721229-.23037697.6721229-.23037697l.9937383.10568449.2782771.16651009c.2197325 0 .3786394-.1398989.5231002-.1665101.2212531-.04257792.3999283.01216513.6728832-.03725568l.458473.05398273.1741133-.05246209.2645914-.00152064v.44554755l-.1117671.64779268.1490228.64931331c-.1110068.40449027-.1490228.72762628-.1110068 1.13439751l-.1513036.80974084c.1132876.24330242.1132876.4060109.1132876.648553 0 .15586561.0767924.44706818.0038016.52614147-.1368576.14674177-.4805222 0-.6029338 0-.1049241 0-.836352.09732096-.9473587.10416384-.1307751.00836352.0144461-.17107201-.1216512-.15662592-.2159309.02356992-.5793639.26687233-.800617.29576449-.4463079.05854465-.4075316 0-.821906 0l-.5960909-.12089088-.6379085-.00076032-.6265038.06994944-.0076032-.19160065.1125274-1.13287687c-.0661478-.21060865-.0220493-.48432386-.0524621-.62650371-.0585446-.27067394-.1566259-.33834242-.1566259-.47063811 0-.19996417.1072051-.37787906.1216512-.48660483.0152064-.11328768-.0623462-.15662592-.0623462-.36191234 0-.28435969.2980454-.32465665.3733171-.60901635L10.711921.6446754V.13982289z"/>
    <path fill="#8ACF17" d="M14.1036327 9.95570671l.3223757-.97016838.0859161-.28968194.5611162-.03345408 1.1762151.05626369.441746.26687233.3238963-.32313602 1.2925441.32313602.325417.32313602-.325417.97016835v.9701684l-.323136.3246567v.969408l-.3231361 1.6172007-.3238963.648553-.3223757.9686478v.9709287l-.3238963.3238963v.646272l-.323136.9701684-.3238964.6477927-.3238963.9694081v.3246566l-.3223757.3246567-.3246567 1.2917837-.6470323.9686478v.3238963l-.3223757.648553-.3238964.320855v.3231361l-.3246566.3238963v.648553l-.6265037-.1049242-.7428327-.0631065-.935954.0631065-1.1252737-.0631065-.44934911-.1558656-.66604036-.0927591.34290434-.5557939.32313602-.3231361v-.320855l.32389634-.3238963.32313597-.9694081.3223757-.6477927.3238964-.9701684v-.646272l.6470323-.9709287.3231361-.6455117v-.325417l.3238963-.6455117v-.6477927l.646272-.9701683v-.9709287l.3231361-.3231361V13.8379008l.323136-.6470323v-.3246567h.3246566v-.323136c.2433024-.4850842.2052864-1.9061223.3284583-2.63450894l-.0045619.04713985z"/>
    <path fill="#0360A8" d="M13.7501599 11.1622586l.648553.3238963-.3246567.4440269-.3269376.325417-.3238963.4052506-.2410215.4858445-.0821146.5687194-.6477926 1.294825-.6477927.9701684-.3216154.323136-.6470323.9701684-.3246567.3246566-.323136.6455118-.32465668.3246566-.3223757.9701684v.3223757l-.64703235.3246567-.32313602.323136-.64779268.9701683v.3238964l-.32389634.323136-.64475139.6470324v.3238963l-.648553.9686477-.64703236.9709287-.32237569.3223757-.64779268-.3223757h-.32389634l-.97016837-.3246566h-.64779268l-.3223757-.3238964-.97092869-.3223757-.69265156-.2326579.37331714-.3102106.31933442-.4257792.32465665-.3238963h.32389634l.3223757-.3231361.64627204-.9709287.32389634-.3238963.56795907-.6500736.72610564-.6439911.32389634-.6470324.64627203-.3216153.32313602-.3238964v-.3246566l.32389634-.6455118.648553-.6470323v-.6477927l.72762628-.9747303.56491779-.9656064.32389634-.3231361.32313602-.9709287.32237569-.3238963.64703236-.9701684v-.323136l.32465668-.3223757v-.325417c.3641933-.1208908.1376179-.82342656.4622746-.90326017l.8705664.37331717.3117312.3102105.49877.1870388.7694439.1916006.6493133.1992039z"/>
  </g>
</svg>
