<?xml version="1.0" encoding="UTF-8"?>
<svg xmlns="http://www.w3.org/2000/svg" xmlns:xlink="http://www.w3.org/1999/xlink" width="427" height="165" viewBox="0 0 427 165">
  <defs>
    <path id="a" d="M0 0h427v165H0z" />
  </defs>
  <g fill="none" fill-rule="evenodd">
    <mask id="b" fill="#fff">
      <use xlink:href="#a" />
    </mask>
    <path fill="#f68232" fill-rule="nonzero" d="M300.506676 161.43401c57.17642-10.383903 68.364422-63.2546908 166.583621-106.3939875 85.354927-37.4891224 49.958601-70.4733251 47.248132-151.2386189-.994279-29.5693506-8.168427-139.2613686-27.057087-162.6520896-17.13545-21.222489-42.931178-36.071263-70.556803-46.689475-96.929-37.227839-222.308666-22.777596-314.276848 36.221758-30.5185537 19.589346-57.7924785 44.080905-74.6872919 73.162543C-7.13985869-136.033373-28.9868116 49.6275324 1.13773282 104.04517 33.4676731 162.453694 124.894712 142.049161 172.402545 142.049161c51.070921 0 82.150644 27.730537 128.104131 19.384849z" mask="url(#b)" transform="rotate(4 255.394846 -81.5)" />
  </g>
</svg>