<svg width="300" height="300" xmlns="http://www.w3.org/2000/svg"><g fill="none" fill-rule="evenodd"><path fill="#FFF" d="M0 0h300v300H0z"/><path d="M170.85877 124.086112l-8.368972 3.95424-2.081225 2.082469c-16.12582 6.345404-17.638993 2.964455-35.415102 10.427043l-8.3249 2.087368-10.420816 4.160038h-4.172243l-4.157553 2.087368h-8.339591l-6.243674 2.08247h-2.081225l-4.152656.470392-.024485-4.64023-1.185074-5.781913 1.185074-2.547962v-4.179637L75 132.21019v-4.169838l4.16245-2.087368h8.344487c6.919461-4.326635 8.799909.240096 18.740819-6.257206h12.506937l2.076328-2.077569h2.086122l4.16245-2.087368 6.253468-2.087369 2.081225-2.082468h4.167347l6.248572-2.07757c5.283862-5.845611 13.682217-6.5757 20.836734-8.344573l4.16245-2.08247 4.172243-2.087368 2.081225-2.087368h2.076328l6.253469-6.247406h2.091019l4.16245-2.082469 2.076327-2.092268 10.415919-8.334775h2.091019V73.83737L208.325716 71.75l4.182038 2.087369v2.087368l2.810877 1.34258 3.202638 3.214352 4.808854 4.405033L225 88.43425v2.082468l-4.177141 2.082469-4.157553 4.169837-6.243674 6.257206-4.172244 2.077569-4.172244 4.179637-4.167347 2.077569-8.324899 4.169837-10.425713 4.164937-2.076328 2.092269-6.253469 2.077568.029382.220497z" fill="#DF3318"/><path d="M143.993827 68.882905l3.191563-.45105s2.874358 1.142019 4.787343 1.02206C153.744197 69.348348 156.28671 68 156.28671 68l6.378245.666977 1.786104 1.050849c1.410338 0 2.430272-.882905 3.357484-1.050849 1.420099-.26871 2.566914.076774 4.318857-.235121l2.942679.340686 1.117535-.33109 1.698263-.009596v2.81186l-.71737 4.088233.956493 4.09783c-.712489 2.552748-.956493 4.592066-.712489 7.159208l-.971133 5.110292c.727129 1.535487.727129 2.562344.727129 4.093032 0 .983671.492887 2.821457.024401 3.32049-.878412.92609-3.084201 0-3.869892 0-.673449 0-5.36807.614195-6.08056.65738-.839371.052783.09272-1.079638-.78081-.988469-1.38594.14875-3.71861 1.684237-5.138709 1.866576-2.864598.369477-2.615715 0-5.27535 0l-3.82597-.762945-4.094375-.004798-4.021173.441452-.0488-1.209196.722249-7.14961c-.424566-1.329156-.141522-3.056578-.336725-3.953879-.375765-1.708229-1.005293-2.135286-1.005293-2.970207 0-1.261978.68809-2.384803.78081-3.070974.097602-.71496-.400165-.98847-.400165-2.284036 0-1.7946 1.912985-2.048915 2.396112-3.843516l-2.22043-3.771539v-3.186135z" fill="#FBD016"/><path d="M165.742508 131.587956l2.082454-6.207808.554993-1.853586 3.624649-.214062 7.598009.360014 2.85355 1.707634 2.092277-2.067648 8.349461 2.067648L195 127.447796l-2.102099 6.207808v6.207809l-2.087366 2.077377v6.202944l-2.087365 10.34797-2.092276 4.14989-2.082454 6.198078v6.212674l-2.092277 2.072513v4.135295l-2.087365 6.207809-2.092276 4.145025-2.092277 6.202944v2.077378l-2.082453 2.077378-2.097188 8.265726-4.179642 6.198078v2.072513l-2.082454 4.149891-2.092276 2.053053v2.067647l-2.097188 2.072513V233l-4.047033-.671377-4.798484-.4038-6.045992.4038-7.268942-.4038-2.902665-.997336-4.302428-.593536 2.215063-3.556355 2.087365-2.067647v-2.053053l2.092276-2.072513 2.087366-6.202943 2.082453-4.145026 2.092277-6.207809v-4.135295l4.179641-6.212674 2.087366-4.13043v-2.082243l2.092276-4.130431v-4.145026l4.17473-6.207808v-6.212673l2.087365-2.067648v-8.275456l2.087366-4.140161v-2.077378h2.097188v-2.067648c1.571663-3.103904 1.32609-12.19669 2.121745-16.857411l-.029469.301633z" fill="#8ACF17"/><path d="M163.621686 139.782454l4.190814 2.062583-2.097863 2.827578-2.112603 2.072267-2.09295 2.58065-1.55743 3.093874-.530607 3.621624-4.185901 8.24549-4.1859 6.178066-2.078212 2.057741-4.180988 6.178066-2.097863 2.067425-2.088037 4.11064-2.097864 2.067425-2.083124 6.178066v2.052899l-4.180988 2.067425-2.088037 2.057741-4.1859 6.178066v2.062583l-2.09295 2.057741-4.16625 4.120324v2.062583l-4.190813 6.168382-4.180988 6.182907-2.083124 2.0529-4.1859-2.0529h-2.09295l-6.269026-2.067424h-4.1859l-2.083125-2.062583-6.273938-2.0529-4.475769-1.481573 2.412297-1.975432 2.063472-2.711377 2.097864-2.062583h2.09295l2.083124-2.057741 4.176075-6.182907 2.09295-2.062583 3.670033-4.139692 4.691942-4.100957 2.09295-4.120324 4.176075-2.048058 2.088038-2.062583v-2.067425l2.09295-4.11064 4.190814-4.120325v-4.125166l4.701768-6.207116 3.65038-6.149015 2.092951-2.05774 2.088037-6.182908 2.083125-2.062583 4.180987-6.178066v-2.057741l2.097864-2.0529v-2.072266c2.35334-.769837.889258-5.243609 2.987121-5.751992l5.625418 2.377296 2.014342 1.975432 3.222947 1.191069 4.971986 1.22012 4.195726 1.268536z" fill="#0360A8"/></g></svg>