<svg width="22" height="24" viewBox="0 0 22 24" fill="none" xmlns="http://www.w3.org/2000/svg">
<g clip-path="url(#clip0_114_2839)">
<path d="M14.0612 8.17374L12.8305 8.74491L12.5264 9.04435L10.6959 9.64602L10.3917 9.64047L9.40041 9.82901L8.24859 10.2505L7.33333 10.5499L6.11111 10.8521L4.58192 11.451H3.97081L3.36252 11.7505H2.75141H2.13748L1.22222 12.0554H0.918075L0.304147 12.122V11.451L0.13236 10.6164L0.304147 10.2505V9.94824V9.64602L0 9.34657V8.74491L0.611111 8.44546H1.22222H1.83333L2.44444 8.14324H2.75141H3.05556L3.97081 7.8438L4.58192 7.53881H4.88889H5.50282H5.80415H6.41526L6.72504 7.24214H7.02918L7.6403 6.93992L8.55555 6.6377L8.8597 6.33825H9.47363L10.3889 6.03881L10.6959 5.73659L11.307 5.43437L11.9153 5.13493H12.2222L13.4444 4.83271L14.0556 4.53326L14.6695 4.23382L14.9708 3.9316H15.2778L16.193 3.02772H16.5L17.1111 2.72827L17.4181 2.42605L18.9444 1.2255H19.2514V0.923281L19.5556 0.621063L20.1667 0.923281V1.2255L20.5806 1.41681L21.0509 1.88262L21.755 2.51755L22 3.02772V3.32716L21.3889 3.62938L20.7778 4.23382L19.8625 5.13493L19.2514 5.43437L18.6375 6.03881L18.0264 6.33825L16.807 6.93992L15.2778 7.53881L14.9708 7.8438L14.0556 8.14324L14.0612 8.17374Z" fill="white"/>
<path d="M10.1185 0.127542L10.5888 0.0609982C10.8135 0.15191 11.0529 0.202613 11.2957 0.210721C11.5165 0.175806 11.7298 0.104571 11.9265 0L12.8671 0.0970425L13.129 0.252311C13.3374 0.252311 13.4895 0.121996 13.6219 0.0970425C13.8303 0.0582255 14.0021 0.0970425 14.2583 0.0609982L14.692 0.110906L14.8582 0.0637708H15.106V0.474122L15.0018 1.08133L15.1426 1.68299C15.0385 2.02416 15.0031 2.38207 15.0384 2.7366L14.8976 3.49076C14.9825 3.68067 15.0183 3.88834 15.0018 4.0952C15.0018 4.23937 15.075 4.51109 15.0018 4.58318C14.8723 4.72181 14.5484 4.58318 14.4386 4.58318C14.3287 4.58318 13.6472 4.67468 13.5458 4.68022C13.4445 4.68577 13.5458 4.52218 13.4276 4.53605C13.2276 4.55545 12.8812 4.78281 12.6728 4.81331C12.4145 4.84107 12.1539 4.84107 11.8956 4.81331L11.3323 4.69963H10.7268L10.1354 4.76617V4.58595L10.2425 3.53235C10.2107 3.33983 10.1947 3.14513 10.1946 2.95009C10.1354 2.69778 10.0425 2.63401 10.0425 2.51479C10.0644 2.35932 10.1041 2.20678 10.1608 2.06007C10.1749 1.95471 10.1017 1.9159 10.1017 1.72181C10.1017 1.46118 10.3833 1.42237 10.4537 1.16728L10.127 0.612754L10.1185 0.127542Z" fill="white"/>
<path d="M13.3234 9.25784L13.6275 8.35396L13.7092 8.0767L14.2386 8.04343L15.351 8.09611L15.7678 8.34287L16.0748 8.04343L17.297 8.34287L17.6011 8.64509L17.297 9.54897V10.4501L16.99 10.7523V11.6534L16.6831 13.1562L16.3761 13.7606L16.0748 14.659V15.5628L15.7706 15.8761V16.4778L15.4665 17.3817L15.1595 17.9834L14.8554 18.8845V19.1839L14.5484 19.4861L14.2414 20.6895L13.6303 21.5906V21.9039L13.3262 22.5055L13.022 22.805V23.1044L12.7151 23.4039V24.0111L12.1096 23.9002L11.4168 23.8447L10.5325 23.903L9.47082 23.8447L9.04558 23.7005L8.41757 23.6146L8.73017 23.0933L9.03432 22.7939V22.4944L9.34973 22.1811L9.65669 21.28L9.96084 20.6784L10.2678 19.7745V19.1839L10.8789 18.2828L11.1859 17.6839V17.3817L11.4872 16.78V16.1756L12.1096 15.2745V14.3734L12.4137 14.0712V12.8678L12.7207 12.2662V11.9667H13.0277V11.6645C13.2558 11.2126 13.2192 9.89278 13.3346 9.21348L13.3234 9.25784Z" fill="white"/>
<path d="M12.9854 10.3808L13.6022 10.6802L13.2952 11.0906L12.9854 11.3956L12.6728 11.7754L12.4447 12.2246L12.3743 12.7542L11.7632 13.9547L11.1521 14.8614L10.8479 15.1608L10.234 16.0647L9.92986 16.3586L9.6229 16.9686L9.31594 17.268L9.01179 18.1691V18.4714L8.40068 18.7708L8.09653 19.073L7.48542 19.9769V20.2791L7.17846 20.5786L6.56734 21.1775V21.4797L5.95623 22.378L5.35075 23.2902L5.04097 23.5841L4.42986 23.2902H4.1229L3.20764 22.988H2.59653L2.28957 22.6802L1.37431 22.378L0.71814 22.1645L1.07298 21.8873L1.37431 21.4908L1.68972 21.1775H1.98542L2.28957 20.878L2.90068 19.9769L3.20764 19.6858L3.74272 19.0786L4.42986 18.4824L4.73401 17.8808L5.35075 17.5675L5.65772 17.268V16.9686L5.95623 16.3586L6.56734 15.7597V15.1608L7.25731 14.2542L7.78957 13.3586L8.09653 13.0592L8.40068 12.1553L8.70764 11.8531L9.31594 10.9519V10.6497L9.6229 10.3503V10.0453C9.96929 9.93716 9.75526 9.28282 10.0622 9.2135L10.8845 9.56008L11.1662 9.83735L11.6365 10.0092L12.3659 10.1895L12.9854 10.3808Z" fill="white"/>
</g>
<defs>
<clipPath id="clip0_114_2839">
<rect width="22" height="24" fill="white"/>
</clipPath>
</defs>
</svg>
