<?xml version="1.0" encoding="UTF-8"?>
<svg xmlns="http://www.w3.org/2000/svg" xmlns:xlink="http://www.w3.org/1999/xlink" width="788" height="1476" viewBox="0 0 788 1476">
  <defs>
    <path id="a" d="M.31957277.95095629H102.717864V197H.31957277z"/>
  </defs>
  <g fill="none" fill-rule="evenodd">
    <path fill="#772A84" d="M302.058636 1466.19736c7.241178-4.01827 12.929908-10.1609 16.931895-17.29154 4.020788-7.17038 5.876743-16.00157 12.363184-21.52702 12.782184-10.89198 28.929797-13.75271 38.36804-29.00201 17.99551-29.07883 4.79164-56.80146-8.154384-84.2804-.633872-24.92811-9.494646-50.53698-14.957761-74.51681-6.601935-28.99937-11.785716-58.99469-20.966112-87.32125-1.944589-6.00489-6.293057-9.05899-10.910114-9.7212-2.315243-2.32832-5.065602-4.26461-8.452518-5.56518-8.535781-3.2819-18.881856-.99331-24.73174 6.04197-6.937672 8.35175-4.705692 18.62126-.639243 27.61403 9.626255 21.28598 10.144633 42.2382 7.646748 65.19029-.010743.07947-.021487.15628-.029544.2331-6.701314 20.30856-14.20571 40.38137-21.358254 60.5416-7.179403 20.2238-14.090216 40.2145-19.338459 60.57604-.188012.29402-.408256.5642-.585525.86616-4.716435 7.96503-5.350307 17.46372-5.326134 26.7823-1.810295 10.87079-3.013576 21.90845-3.368115 33.211-.531808 17.02931 2.984032 34.16722 17.431472 45.00093 13.305934 9.97813 31.459912 11.2787 46.076564 3.16799"/>
    <path fill="#A4C208" d="M429.662605 1251.04196c1.44371-14.39347 1.417316-29.19173 1.187695-43.93938.746929-1.80817 1.493857-3.627 2.246064-5.40055.609684-1.43802 1.174499-2.88136 1.681249-4.3247 2.913814-2.88669 5.740529-5.81864 7.421778-9.53085 3.328187-7.34188 1.390923-15.89541-.599126-23.71662-.055426-.21836-.116131-.44206-.171557-.66042-1.541364-13.93012-6.777782-28.90945-17.701942-36.52561-16.804572-11.71451-39.566097-3.83738-56.201753 4.16225-17.200471 8.2686-28.01114 22.8405-26.358923 42.4854 1.905591 22.67538 13.2626 45.91266 20.328069 67.39768 5.925281 18.01782 12.652917 42.33094 35.475146 43.93673 19.480847 1.36611 30.93551-16.38806 32.6933-33.88393"/>
    <path fill="#6BAE72" d="M219.67054 1325.26741c-.580949-2.88689-1.302493-5.98742-3.355708-7.94495-1.984245-1.89076-4.729825-2.25663-7.244616-2.95365-14.974683-4.15541-24.752659-21.72778-39.597358-26.48941-8.024519-2.57443-16.460213-1.03885-24.548398.51542-7.71415 1.48217-15.425647 2.96434-23.137144 4.44384-2.437863.46735-5.10386 1.09226-6.523073 3.2848-1.790595 2.76671-.782556 6.63637-.379341 10.08675 1.050483 8.94375-2.472347 17.45219-5.140998 25.81108-14.733283 46.13413-2.78537 102.26956 29.432082 138.25552 1.878135 2.09372 3.944615 4.20882 6.507156 4.92987 2.055868.57952 4.180708.18694 6.233924-.20563 17.314394-3.30617 34.634092-6.61234 51.951139-9.92118 4.488425-.85725 9.122751-1.77593 12.849842-4.56401 9.92653-7.42686 9.07235-23.62121 8.133282-37.08623-1.13537-16.35458-.068971-31.83055 1.379421-47.85932 1.459004-16.11156-3.337139-34.32219-6.56021-50.3029"/>
    <path fill="#772A84" d="M190.688532 1402.52842c1.269627-6.31306 2.120408-13.23731.115183-19.71231-1.028791-3.31978-2.756531-6.30784-4.680605-8.99291-7.677971-10.72202-18.944929-17.11343-29.638591-16.81306-3.91621.1097-7.835038 1.12313-10.900468 3.84739-2.78009 2.4735-4.704164 6.21903-6.065414 10.23358-4.766991 14.08619-2.643965 32.38283 5.32458 45.85783 2.643966 4.47425 5.931907 8.48097 9.811468 10.97798 8.020902 5.15858 17.541795 3.16829 24.701444-1.1597 7.680589-4.64403 9.209377-13.67612 11.332403-24.2388"/>
    <path fill="#70ABDA" d="M541.366333 605.478376c25.116125-.474065 50.23225-.950792 75.348376-1.424857 6.512279-.125174 13.240479-.300951 19.134318-3.297144 15.714239-7.984521 18.358603-30.771567 20.237914-49.766099 2.284496-23.074681 7.458599-44.402248 13.30179-66.403626 2.708341-10.195046 3.646663-21.332894 3.806605-32.633203 2.356469-7.843367 4.275765-15.718694 5.47266-23.564724 4.374396-28.622299-8.724801-55.260452-34.008865-69.450422-6.347007-3.560809-13.149846-6.49042-20.187266-8.666322-21.57609-10.967398-48.083705-15.75598-70.997971-15.771979-12.222186-.00797-24.990838 2.431597-33.934226 11.420176-10.081637 10.131127-11.030623 24.795161-12.062245 38.199463-1.047616 13.580078-2.252507 27.197442-3.380094 40.828122-17.860119 55.966222-10.660092 121.802569 20.491154 170.897521 2.137883 3.371716 4.545001 6.815341 7.973077 8.431953 2.745661 1.291692 5.829863 1.259733 8.804773 1.201141"/>
    <path fill="#EC8600" d="M222.290025 228.444528c-11.641383 3.273823-22.182377 9.586682-30.837366 18.01526-12.68358 12.348722-24.814319 25.947882-31.326722 42.404052-4.08943 10.333251-5.816724 21.465831-6.409242 32.556203-.878196 16.395495.761808 33.263201 7.713309 48.141816 3.327621 7.128018 7.837633 13.702044 13.297259 19.379132 26.544259 27.615132 69.36159 29.725574 107.719168 30.018397 16.109072.121351 44.420303 6.906421 46.703083-8.998396 9.313636-64.943571 51.448514-120.999544 32.514403-155.771711-20.309599-37.294145-97.01682-37.660835-139.373892-25.744753"/>
    <path fill="#E04B89" d="M307.370458 104.863406c-1.306847-3.213705-2.729083-6.4088948-4.749731-9.2390714-4.315009-6.0385916-10.991467-9.9400033-17.463981-13.6589081-3.413366-1.9599634-6.826732-3.9225719-10.240097-5.8798902-5.369611-3.086744-11.265181-6.284579-17.421046-5.4513962-6.770379.9098886-11.92263 6.501471-15.255491 12.3813612-3.332862 5.8798902-5.514518 12.4316166-9.657786 17.7851467-3.35433 4.335196-7.843764 7.683797-11.46644 11.804746-10.870712 12.362846-12.695467 29.909941-13.492456 46.250904-.373001 7.638832-.238828 16.293353 5.396446 21.549017 4.819501 4.493897 12.091687 4.964712 18.725209 5.152508 16.234955.454945 75.370444 9.633181 86.332393-1.68488 12.580078-12.989717-5.103948-65.223667-10.70702-79.009537"/>
    <path fill="#F5D445" d="M67.29052 350.326951c1.471093 4.630568 6.354377 7.547692 9.769224 11.041303 10.252508 10.48083 25.021854 12.458496 38.787459 13.445995 6.434039.461722 13.73374.453715 18.250579-4.817392 3.866265-4.507798 4.378758-11.3936 4.638987-17.681564.637297-15.391634 9.307185-71.332098-.066385-81.887658-10.757034-12.114206-55.070384 3.920637-66.783363 9.039616-2.729753 1.190337-5.44623 2.495436-7.862646 4.374352 0 0-8.630057 29.053812 3.266145 66.485348"/>
    <path fill="#D1397A" d="M647.451583 210.04566c-38.709401-3.413221-77.588778-3.165574-116.415037-2.915236-37.909982.244956-77.53566.955595-110.98377 21.154976-22.104861 13.348712-41.561812 43.930425-29.204019 68.600912 10.16404 20.285519 34.627319 22.821209 55.226298 22.939649 38.265869.218037 76.529083.438766 114.794952.656803 43.211112.247647 180.7217767 21.521063 209.6894224-21.168435 43.1739294-63.629129-91.7631914-86.504174-123.1078464-89.268669"/>
    <path fill="#6BAE72" d="M397.116054 570.967748c14.992181-.188313 25.734001-1.143143 33.4566-2.578041 1.284435.124659 2.56887.244012 3.853305.368671 19.543664 1.90966 51.547947 7.816344 56.184704-19.290218 1.990608-11.635664-4.119785-23.817703-7.738588-34.586063-3.935914-11.715233-7.50142-23.669174-12.16749-35.127134-1.00463-2.461339-2.233105-4.87759-3.64545-7.195705-1.708139-4.254297-5.020489-8.381285-10.589927-12.192648-3.570836-2.848576-7.536062-4.999596-11.743786-6.129478-8.487397-3.453301-19.698223-6.46632-34.362633-8.840134-142.601597-23.088319-263.333157-18.030372-203.822779 28.512284 12.055569 9.428946-8.729894 25.289733-8.959067 38.198503-.223843 12.603756.575598 25.844065 45.440219 39.718275 29.648597 9.16902 98.21131 19.836592 154.094892 19.141688"/>
    <path fill="#83B71E" d="M279.41162428 344.7466318c.08376923-12.441235.16492067-24.8824699.2486899-37.3183283.03403125-5.2716642-.06282692-10.96538407-3.15443509-15.16981178-4.15704808-5.65608434-12.54182449-6.44643073-18.86640149-3.6103238-6.3245769 2.83879518-11.0078004 8.44649098-15.2302932 14.04612198-8.8926274 11.7906777-16.7878774 24.3663253-23.5784207 37.5495181-4.7669928 9.2529668-7.8664543 23.0195105.9711995 28.2589156 4.3455289 2.5726582 9.7486443 1.6263931 14.7669447 1.6290814 7.1648871.0026882 14.3873654 2.0995256 21.4135096.6613102 10.3664424-2.1264081 18.03656255-11.7315361 21.19099764-22.078622 3.15181731-10.3497741 2.61517068-21.4495708 2.04711058-32.2751656"/>
    <path stroke="#83B71E" stroke-width=".59" d="M279.41162428 344.7466318c.08376923-12.441235.16492067-24.8824699.2486899-37.3183283.03403125-5.2716642-.06282692-10.96538407-3.15443509-15.16981178-4.15704808-5.65608434-12.54182449-6.44643073-18.86640149-3.6103238-6.3245769 2.83879518-11.0078004 8.44649098-15.2302932 14.04612198-8.8926274 11.7906777-16.7878774 24.3663253-23.5784207 37.5495181-4.7669928 9.2529668-7.8664543 23.0195105.9711995 28.2589156 4.3455289 2.5726582 9.7486443 1.6263931 14.7669447 1.6290814 7.1648871.0026882 14.3873654 2.0995256 21.4135096.6613102 10.3664424-2.1264081 18.03656255-11.7315361 21.19099764-22.078622 3.15181731-10.3497741 2.61517068-21.4495708 2.04711058-32.2751656"/>
    <path fill="#A4C208" d="M477.675719 441.72047c3.043262-1.279869 6.06013-2.979324 7.971077-5.71059 1.707711-2.433071 2.364929-5.449339 2.982555-8.370607 4.566213-21.583604 9.140345-44.009018 4.30491-65.505538-1.185104-5.275171-3.048541-10.616314-6.820286-14.429532-2.473145-2.499043-5.614067-4.185303-8.752348-5.73434-28.798816-14.202587-59.92033-14.5562-91.202849-18.614836-2.72917-.353613-5.587672-.694032-8.163756.303474-2.343813.905144-4.167659 2.820989-5.740759 4.808085-.863093 1.089868-1.654922 2.21668-2.409799 3.361965-13.405663 9.938116-21.110158 29.336706-18.251655 46.109586 2.256712 13.236747 12.706214 19.981788 23.459249 26.127798 4.935734 2.823628 9.443879 5.929619 13.669606 9.307418 3.074936 6.971987 5.619346 14.284392 10.845416 19.680953 8.029145 8.2888 20.365839 10.027839 31.752338 11.320902 15.54624 1.762789 31.873751 3.42266 46.356301-2.654738"/>
    <path fill="#7BC6DA" d="M105.187184 248.153312c13.394439 2.846688 27.567594.374032 40.922303-2.644941 14.837978-3.355602 29.86666-9.032874 38.538481-22.508715 9.095611-14.130397 9.763081-32.260265 11.935009-48.463869 2.484474-18.525273 5.888045-37.176115 7.188553-55.8323 2.272578-32.6396406-12.334963-60.8790612-47.128191-64.1625284-27.379538-2.5861645-65.033355 4.0048147-86.620201 21.8354574-27.43516 22.658328-21.965609 60.635941-20.800184 92.369889 1.014449 27.598223-6.242969 80.131026 33.596019 82.185531 7.381907.379375 14.901546-.862945 22.368211-2.778524"/>
    <path fill="#F5D445" d="M468.657685 3.58080019c-27.210155-5.3825544-58.881252-6.78079343-73.288029 22.15875941-2.481828 4.9857208-3.751847 10.7730987-6.918957 15.361986-3.193568 4.628837-8.151934 7.0897377-12.71871 10.1312405-11.464567 7.6357167-20.137738 16.3101252-25.339523 29.3603561-8.503835 21.3491128-8.779006 52.1556468-2.799334 74.3117428 7.91116 29.309754 31.22659 36.806978 58.780709 37.635268 17.991935.537989 35.999745.625879 53.999617.298291 31.128693 6.695568 64.191518 6.170895 95.029165-1.526078 17.954893 1.67256 39.365295 4.495672 54.391206-3.821853 16.306514-9.025966 18.687799-27.98875 19.066159-44.868824.312213-13.889175.904889-27.938148.997494-41.952498 5.058909-12.0541518 6.582932-25.1256891 1.531961-38.7005926-9.522496-25.5944323-37.007822-32.854622-60.984721-37.7471269-33.906859-6.9166224-67.800489-13.92646069-101.747037-20.64067131"/>
    <path fill="#D5411E" d="M491.314218 677.413524c3.227588-1.145254 6.449954-2.411485 9.335459-4.29067 6.157486-4.019142 10.325148-10.506227 14.302184-16.79437 2.096888-3.320161 4.191165-6.634946 6.288052-9.952419 3.298094-5.218164 6.729365-10.960565 6.207101-17.16268-.577101-6.820444-5.844128-12.25368-11.484573-15.880318-5.640445-3.626637-11.996391-6.137593-17.078014-10.551929-4.112825-3.57287-7.202013-8.231849-11.090264-12.062805-11.672588-11.492866-28.889003-14.189321-44.964271-15.805043-7.51276-.752749-16.054378-1.048472-21.506809 4.328308-4.663812 4.599834-5.473321 11.85311-5.972082 18.47999-1.222097 16.227121-13.098367 74.938863-2.45725 86.472055 12.21052 13.234943 64.554373-1.857677 78.420467-6.780119"/>
    <path fill="#E69E37" d="M329.499971 840.813274c3.71392-1.499001 7.128074-3.353518 10.2796-5.486609.46424-.26531.907258-.575723 1.321095-.947157 13.356848-9.620137 21.768878-24.525248 27.39812-40.28731 11.391124-31.892904 21.689294-69.84814 16.717946-104.343735.522602-36.018473-7.939831-72.201439-25.440353-102.637792-1.981642-3.451682-4.225911-6.97765-7.565786-8.734002-2.674023-1.408796-5.738007-1.504307-8.701185-1.578594-18.933035-.456333-37.868722-.912666-56.80441-1.371652-11.797002-1.912885-23.623185-3.459642-35.186741-4.645577-21.29668-2.180847-39.616918 8.367875-42.739263 30.653907-1.787988 12.76406 2.069184 25.49363 2.721772 38.21524.692381 13.58652-.389961 27.385289-3.472515 40.634866-5.671687 24.379328-17.542967 46.792709-21.567265 71.631023-3.788199 23.379109 3.215194 41.56345 28.315989 44.771047 11.563556 1.480429 16.675502 7.914195 24.3474 16.104312 7.9584 8.500529 16.980573 16.446561 27.18059 22.16399 19.246065 10.782194 42.389094 14.268367 63.195006 5.858043"/>
    <path fill="#772A84" d="M688.323257 207.00589c14.9539908-2.090662 29.0143801-14.402049 37.6156268-25.843868 12.7977483-17.02661 10.504434-41.556876 11.9568664-61.815952 1.4972443-20.9145563 3.2686319-43.5312447-7.9633363-62.3339935-19.379824-32.4383097-68.0086319-31.5000224-76.4675349 8.6745321-1.932183 9.1793571-.59837 18.9454742-2.802061 27.987392-2.435658 10.0039924-9.76372 18.0547624-12.20465 28.1961944-1.020129 4.231543-1.299545 8.373223-1.146657 12.459398-1.373353 5.650868-1.370717 11.748414-1.275821 17.629228.113348 7.247279.229332 14.494557.345315 21.744478.0659 4.080889.142344 8.243713 1.486701 12.097299 3.345075 9.596961 13.404027 14.822296 22.595736 19.119916 8.893842 4.160181 20.460581 7.902758 27.859815 2.085376"/>
    <path fill="#F5D445" d="M574.431634 868.574138c16.312912-11.425681 38.10586-22.435302 50.584337-38.165617 11.535105-14.543474 10.199545-33.916992 2.604872-50.047366-7.955062-16.898487-22.38653-29.471004-37.008793-40.435284-18.085709-13.564663-36.659003-27.284016-55.635086-39.557822-25.179547-16.290398-58.202859-10.524216-84.961759 3.624533-4.526064 1.056156-8.784487 2.485699-12.68782 4.355308-13.689491 4.133942-25.865876 11.64438-33.892486 25.153035-7.279333 12.247136-7.902064 26.387884-9.584764 40.157911-1.905293 15.596962-9.897454 27.038646-15.544435 41.294077-10.244593 25.870474.582983 51.591593 27.792369 57.803174.519385.370721 1.00167.749444 1.568753 1.10683 5.869575 3.704545 27.874516 6.403609 52.399533 7.729137 16.747499 1.938952 33.545346 3.040448 49.696613 2.747071.151046-.002667.278242-.037339.429287-.042673 1.35411.170692 2.708219.354719 4.057029.51741 23.231855 2.787077 41.246016-2.973771 60.18235-16.239724"/>
    <path fill="#6DAE25" d="M147.296381 401.092658c-8.621641-10.116992-21.09069-16.749213-34.491954-16.592658-32.134474.385285-43.924569 36.962101-46.578418 66.564063-3.81777 42.558298-2.815505 85.374236-1.805156 128.086586 2.19313 93.029046 4.38626 186.058091 6.57939 279.084481.14549 6.193968.584655 13.075859 5.121794 17.362765 3.992898 3.771628 9.984939 4.377213 15.500095 4.783592 13.007901.956188 26.018497 1.912375 39.029093 2.871218 5.377749.395755 11.197357.69058 15.712941-2.220479 4.42398-2.844657 6.517423-8.082438 8.104343-13.049299 10.67467-33.46124 10.025353-69.233265 10.704307-104.30143 1.260915-65.076507 16.43231-130.041458 16.968468-194.568157.471496-56.372547 4.744597-121.542017-34.844903-168.020682"/>
    <path fill="#F5D445" d="M146.248528 825.654653c.082192-12.103979.164384-24.215838.246576-36.319817.037119-5.130006-.05833-10.675036-3.178964-14.767484-4.189127-5.505629-12.641619-6.275262-19.015455-3.51194-6.373836 2.760695-11.093232 8.221669-15.351294 13.669511-8.964202 11.476189-16.923543 23.719385-23.764016 36.545715-4.806891 9.014942-7.930176 22.411273.975695 27.512385 4.382676 2.505902 9.825889 1.581293 14.887309 1.581293 7.222267.005253 14.502864 2.046224 21.581958.643549 10.446304-2.067238 18.180281-11.415775 21.359245-21.486664 3.178964-10.073515 2.638089-20.879888 2.062747-31.415708"/>
    <path fill="#EC8600" d="M709.5768243 343.01097c-4.5219808-.061239-9.2506041.066563-13.246586 2.175294-10.0825413 5.325079-10.2489283 19.327374-9.2962263 30.619204 4.3851136 52.049983 3.249922 104.552598-3.384106 156.368278-3.110371 24.316972-7.737015 49.272954-21.34858 69.729245-5.783305 8.690529-13.496167 18.21177-10.715887 28.252206 3.563912 12.86539 20.683031 15.272326 34.120157 14.787744 8.928564-.322167 17.9913114-.8174 26.444866-3.692942 16.8024463-5.708485 29.3271256-20.363102 36.2831934-36.575305 6.9533842-16.214865 9.0520127-34.021928 10.6058565-51.576051 3.3009119-37.232951 4.4951442-74.649618 3.5853807-112.018359-.501846-20.47759 8.9902883-48.820323 3.8376454-67.945343-6.4488545-23.94688-35.7652454-29.831092-56.8857137-30.123971"/>
    <path fill="#70ABDA" d="M525.497254 76.2904132c-8.586444-3.721713-18.164968-7.0352729-27.962767-6.1437803-5.027255.4591724-9.789776 2.0112288-14.183276 3.9338454-17.539236 7.6743549-30.01378 21.7690677-32.805511 37.0748137-1.024169 5.604052-.770132 11.487366 2.179369 16.677893 2.671397 4.707189 7.409852 8.579274 12.704514 11.731721 18.568754 11.060415 45.197159 13.587206 66.736806 6.337116 7.147793-2.408641 13.827624-5.872573 18.542013-10.636151 9.746991-9.846697 9.789776-24.005855 5.800061-35.498591-4.286537-12.341265-16.651444-17.2552151-31.011209-23.4768668"/>
    <path fill="#EC8600" d="M595.348022 1125.56832c29.236628-11.38298 53.840085-35.05544 66.489964-63.93557 6.978878-8.11854 13.062892-16.93889 16.967993-26.87574 3.820379-9.72152 5.43537-20.19801 5.991351-30.63729.820733-15.420986-.709537-31.293892-7.209213-45.29799-.137672-.297733-.309761-.579516-.452727-.879908-3.124081-12.427706-8.456198-24.626796-16.316702-36.086869-10.526563-15.335922-25.13561-29.704212-44.057477-32.987253-20.679825-3.591407-45.458019 4.862091-65.711592 9.017065-10.719832 2.198442-20.102663 5.970616-27.21127 12.430365-1.331706.87725-2.639583 1.810325-3.899806 2.852391-7.481908 6.191258-13.001999 14.567664-15.689238 23.932971-3.259104 11.35374-.121786 23.45713-3.399423 34.66732-2.946696 10.067106-10.298875 18.690738-14.622285 28.202253-4.8688 10.702445-7.066247 22.109355-7.725481 33.829945-1.162263 20.62335-.881626 44.92583 7.209213 64.21735 17.523974 41.78633 73.818316 41.49657 109.636693 27.55096"/>
    <path fill="#D1397A" d="M618.777814 1335.71162c12.876406-17.37678 18.690613-43.21898 23.203609-63.93126 1.40765-6.46516 2.644998-12.99102 3.685435-19.55647 1.620527-6.4203 2.743454-13.21269 3.539083-20.1634 2.07023-12.57409 2.724827-25.33817 2.022332-38.11281-.066524-5.60227-.532192-11.16231-1.836065-16.06264-2.778047-13.8724-9.233546-26.65232-24.177521-31.53154-17.977475-5.86615-41.316792-1.09248-59.85573.28763-16.849225 1.25082-30.502633 9.37581-32.596812 27.39384-1.173485 10.10149 1.780185 20.07895 5.133 30.02476 1.240009 15.36334 3.996768 32.43402 6.881254 47.27223-1.68173 15.00447-5.053171 29.9931-1.535377 44.50674 6.793442 28.00604 49.054876 75.61077 75.536792 39.87292"/>
    <path fill="#CED605" d="M232.287414 1120.45543c34.659843 3.41322 69.473788 3.16557 104.239909 2.91254 33.945124-.24496 69.425963-.9529 99.375043-21.15224 19.794237-13.34868 37.215823-43.93302 26.152306-68.60345-9.102692-20.28817-31.006544-22.81847-49.451054-22.9396-34.263957-.21804-68.527915-.43608-102.789216-.6568-38.693085-.24765-161.818556-21.518329-187.755649 21.17108-38.661202 63.62899 82.163355 86.50398 110.228661 89.26847"/>
    <path fill="#83B71E" d="M567.377802 981.4725092c-.0773729 11.4078222-.1574139 22.8156444-.2347868 34.2181888-.0320164 4.8317656.0560287 10.0514446 3.0015368 13.9094682 3.9566927 5.1827348 11.9394468 5.9110621 17.9611968 3.3091392 6.02175-2.6019229 10.4800328-7.7424358 14.5007582-12.88031 8.465668-10.8087993 15.9841844-22.3406483 22.4461598-34.4266593 4.53832377-8.4839575 7.49183607-21.10829739-.92313934-25.91103539-4.13811886-2.35914713-9.28208606-1.49095988-14.06053276-1.49095988-6.8194918-.00527773-13.6976804-1.9290118-20.3837705-.60957828-9.8690533 1.94748387-17.1741271 10.75602205-20.175664 20.24538785-3.0015368 9.486727-2.4892745 19.6648372-1.9476639 29.592255"/>
    <path stroke="#83B71E" stroke-width=".59" d="M567.377802 981.4725092c-.0773729 11.4078222-.1574139 22.8156444-.2347868 34.2181888-.0320164 4.8317656.0560287 10.0514446 3.0015368 13.9094682 3.9566927 5.1827348 11.9394468 5.9110621 17.9611968 3.3091392 6.02175-2.6019229 10.4800328-7.7424358 14.5007582-12.88031 8.465668-10.8087993 15.9841844-22.3406483 22.4461598-34.4266593 4.53832377-8.4839575 7.49183607-21.10829739-.92313934-25.91103539-4.13811886-2.35914713-9.28208606-1.49095988-14.06053276-1.49095988-6.8194918-.00527773-13.6976804-1.9290118-20.3837705-.60957828-9.8690533 1.94748387-17.1741271 10.75602205-20.175664 20.24538785-3.0015368 9.486727-2.4892745 19.6648372-1.9476639 29.592255"/>
    <path fill="#EB9CC2" d="M723.2107073 1202.73808c16.3645581-5.84254 34.7733654-10.41977 47.7836645-22.53627 15.49562017-14.43405 20.15460669-36.04698 14.98323729-56.13943-.64444031-2.49906-1.41565577-4.94025-2.25818224-7.34987-2.06801953-13.33973-5.70488145-29.39948-12.00402145-42.77603-.3935311-2.86209-.9613781-5.71365-1.8435218-8.53627-5.1660871-16.54905-18.6491519-25.50095-35.1431263-28.88915-16.4992567-3.39083-35.1774612-1.89665-45.6522574 13.06089-4.8016089 6.86058-6.5289199 14.85494-8.0845569 22.90718-1.949167 10.09357-5.641494 16.85419-12.048921 24.89854-11.010949 13.82375-19.018912 27.53702-17.825113 45.79595 1.193799 18.28523 9.896385 39.40361 21.155602 53.84819 13.86339 17.78542 32.6155469 12.25066 50.9371963 5.71627"/>
    <g transform="rotate(90 -347.5 545)">
      <mask id="b" fill="#fff">
        <use xlink:href="#a"/>
      </mask>
      <path fill="#F5D445" d="M98.8673231 29.5414811c-.1769487-1.0968108-.412-2.182973-.7526923-3.2451757-1.6031026-4.9995405-5.0073846-8.8783108-9.164359-12.0862162C80.3246821 4.78337297 69.9560154.84337297 59.5609385 1.07231892c-3.2062052-.32478379-6.2856411-.02395946-9.0191026 1.22193243C34.0512718 6.36203514 18.8363231 20.1467108 12.1782974 38.0816973c-1.4393589 3.8761081-2.58028202 7.8746757-3.49671791 11.9610946C7.35050256 52.457373 6.47632308 56.1338189 6.1488359 61.8974c-.12676923 2.2601757-.18223077 4.531-.27730769 6.7938378-1.14620513 12.1341352-1.3178718 24.4732568-2.14979488 36.1042432-1.47105128 20.477351-6.70028205 44.580568-.27466666 64.565419 5.54351282 17.242824 21.01992303 29.880108 39.60217953 27.305797 19.1896923-2.656838 31.3965128-19.9955 30.2027692-38.963405-.6840257-10.821689-4.5214359-21.047054-4.5768975-31.956595-.0211282-4.435162.3618206-8.870324 1.1356411-13.238932 1.9253077-3.535351 4.2758205-6.841757 7.1730256-9.828703 5.6808462-5.8620809 13.1232564-10.1215404 17.3858718-17.0964052 3.3171282-5.4254865 4.2943077-11.8146757 4.6085898-18.2624325 4.5795388-12.099527 5.4167438-24.9231621-.1109231-37.7787432" mask="url(#b)"/>
    </g>
    <path fill="#F5D445" d="M254.243267 1275.90129c5.064841-12.44173 11.740739-26.25916 16.315606-40.39164 4.731978-8.87382 7.932787-19.28087 9.040555-30.16836.753601-7.37472.561872-15.11437-1.600405-21.94564-1.962559-6.19067-5.442973-11.28655-9.330811-15.43467-1.493889-1.59624-3.07299-3.03233-4.697361-4.35552-.069235-.14965-.119831-.30717-.186403-.4542-10.675578-23.13231-35.23553-41.5363-61.944445-37.62447-11.527706 1.68288-22.461585 7.86305-28.466431 17.92617-8.859478 14.84921-2.891912 30.61468-.764253 46.22525 2.468511 18.12044-4.982291 30.70657-8.771602 47.48806-3.477751 15.41367 4.276622 25.78659 15.791014 34.97546 7.615902 6.07777 15.322342 12.05316 22.983514 18.07843 6.398955 5.03288 12.574227 10.70897 20.877158 12.28421 18.738847 3.55215 25.08987-12.68064 30.753864-26.60308"/>
    <path fill="#EC8600" d="M552.025384 850.445683c8.665123-8.548494 17.327654-17.094298 25.992777-25.640101 3.668806-3.622882 7.545035-7.630662 8.341023-12.822742 1.070825-6.973914-4.117359-13.700201-10.404889-16.397176-6.287529-2.699666-13.371047-2.271703-20.135651-1.507291-14.239634 1.60688-28.34185 4.489575-42.104409 8.605018-9.665943 2.893461-21.310188 10.133842-18.89111 20.270376 1.187501 4.984828 5.538212 8.311635 8.971073 12.009882 4.897791 5.283594 8.385102 12.055638 14.185186 16.23568 8.556225 6.166436 20.451972 5.178622 29.767887.341832 9.318508-4.83679 16.630192-12.914256 23.734452-20.822152"/>
    <path fill="#B93630" d="M728.1825815 690.938849c-4.1647438-11.063376-13.1812543-19.682854-24.4771899-23.496177-26.8418266-9.064542-77.8652646-26.535248-96.5134106-34.575354-11.847152-5.106376-22.253685-5.4619-30.045271-4.350559-8.97923 1.277253-17.143619 5.856927-23.201671 12.535509-12.358424 13.623147-28.205221 42.196732 27.736555 64.176007 42.771173 16.801795 63.448434 47.100328 73.362335 70.435861 9.929878 23.375036 39.3760012 31.831237 60.0559247 16.843931 20.5068363-14.860898 34.7319395-44.09286 13.0827278-101.569218"/>
    <path fill="#D64221" d="M221.935831 959.5c-44.646217 0-11.780318-93.602007-11.780318-138.430402 0-44.82043 21.929109 35.735279 66.575326 35.868026 39.799232.116816 67.093608-23.142974 78.865994 21.401344C367.051904 921.66202 266.582049 959.5 221.935831 959.5"/>
    <path fill="#E67EAE" d="M424.55176 895.104372c-12.039239-.303122-24.528418-.256488-35.486734 4.598639-12.286839 5.445824-21.062011 16.189799-29.34997 26.55552-13.889586 17.371196-42.994618 9.824247-41.67142 52.110998 9.669729 15.474743 22.779241 5.370692 34.552242 5.603862 19.230301.373073 38.460601.751327 57.690902 1.1244 18.250548.360118 37.334419.538882 53.652086-7.422592 18.002948-8.785343 38.873269-37.667386 31.5624-58.67345-7.800745-22.41545-51.418358-23.405129-70.949506-23.897377"/>
    <path fill="#782666" d="M114.162191 1235.49275c15.639246-2.71529 33.506999-7.47896 40.012544-21.95787 3.011924-6.70354 2.916644-14.33335 2.765783-21.68528-.336129-16.45319-1.521842-34.70069-10.316768-47.84578-1.468909-3.80299-3.141612-7.46573-5.007523-10.9088-11.213993-20.70344-32.075144-33.91998-42.312511-55.17389-3.459214-7.17991-5.547446-14.43127-6.569066-21.73027.500223-16.14355 6.172064-28.45764 7.339251-46.90628 1.175127-18.52538-13.429267-32.837562-33.819308-28.505269-15.734526 3.350448-27.528143 17.249779-32.882381 32.416779-5.354239 15.17229-5.391292 31.62812-5.370119 47.71345.06352 45.06961.248788 90.97022 13.900376 133.92264 4.708448 14.80443 11.85449 30.12492 25.397564 37.7415 13.926842 7.8283 31.117044 5.65554 46.862158 2.91907"/>
    <path fill="#70ABDA" d="M665.556659 833.08224c-10.394497 4.386668-21.522478 12.048679-22.038535 23.487063-.280295 6.180245 2.732223 12.003374 6.150776 17.120265 7.853504 11.752859 18.213947 21.528253 26.832369 32.716123 15.0337758 19.521472 24.5664313 43.378977 27.1807732 68.041326 1.5691291 14.783019 1.9542075 32.273723 14.0671504 40.594003 5.0112586 3.44591 11.2668182 4.54924 17.3128113 4.45329 4.3720808-.06929 8.9144344-.79418 12.50588-3.3313 4.6602348-3.29134 6.9418899-9.02652 8.6812917-14.52451 16.4535887-51.907133 5.946449-108.693964-10.9446097-160.459846-5.7814154-17.714571-11.0258167-18.887191-28.3543455-18.655332-17.6245415.239854-35.0945274 3.677765-51.3935614 10.558918"/>
    <path fill="#7BC6DA" d="M510.314218 1377.41352c3.227588-1.14525 6.449954-2.41148 9.335459-4.29067 6.157486-4.01914 10.325148-10.50622 14.302184-16.79437 2.096888-3.32016 4.191165-6.63494 6.288052-9.95241 3.298094-5.21817 6.729365-10.96057 6.207101-17.16268-.577101-6.82045-5.844128-12.25368-11.484573-15.88032-5.640445-3.62664-11.996391-6.1376-17.078014-10.55193-4.112825-3.57287-7.202013-8.23185-11.090264-12.06281-11.672588-11.49286-28.889003-14.18932-44.964271-15.80504-7.51276-.75275-16.054378-1.04847-21.506809 4.32831-4.663812 4.59983-5.473321 11.85311-5.972082 18.47999-1.222097 16.22712-13.098367 74.93886-2.45725 86.47205 12.21052 13.23495 64.554373-1.85767 78.420467-6.78012"/>
    <path fill="#E67EAE" d="M533.602684 1272.80114c3.26823-6.67791 1.97417-13.25803-1.301999-19.60825-2.127657-17.97774-5.597009-35.88414-8.629715-53.6954-2.955962-17.35672-6.308875-34.946-17.10065-49.35093-9.055776-12.08998-24.285463-22.57854-40.092053-18.90002-16.661357 3.87673-21.541208 21.15682-17.574344 36.0242 2.445218 9.17518 5.906631 16.73043 3.040645 26.41563-2.469036 8.32954-8.735569 15.04444-11.958811 23.10972-6.388265 15.97464-.132317 32.35095 14.965053 40.45587 13.292566 7.13507 34.259519 1.19446 43.111527 13.76805 8.203654 11.65131 27.68601 17.8139 35.540347 1.78113"/>
  </g>
</svg>
